<?xml version="1.0" encoding="UTF-8" standalone="no"?>
<!DOCTYPE svg PUBLIC "-//W3C//DTD SVG 1.1//EN" "http://www.w3.org/Graphics/SVG/1.1/DTD/svg11.dtd">
<svg version="1.1" xmlns="http://www.w3.org/2000/svg" xmlns:xlink="http://www.w3.org/1999/xlink" preserveAspectRatio="xMidYMid meet" viewBox="0 0 640 640" width="640" height="640"><defs><path d="M290.13 200.8L193.58 423.1" id="ciVkH3pjn"></path><path d="M236.46 353.02C267.49 353.02 292.64 378.17 292.64 409.2C292.64 442.91 292.64 487.86 292.64 521.57C292.64 552.6 267.49 577.75 236.46 577.75C202.75 577.75 157.81 577.75 124.1 577.75C93.07 577.75 67.91 552.6 67.91 521.57C67.91 487.86 67.91 442.91 67.91 409.2C67.91 378.17 93.07 353.02 124.1 353.02C157.81 353.02 202.75 353.02 236.46 353.02Z" id="bKGQHpsKG"></path><path d="M471.71 344.96L401.57 200.8" id="f1cKvjWBF8"></path><path d="M400.6 32.36C431.63 32.36 456.78 57.51 456.78 88.54C456.78 122.25 456.78 167.2 456.78 200.91C456.78 231.94 431.63 257.09 400.6 257.09C366.89 257.09 321.94 257.09 288.23 257.09C257.21 257.09 232.05 231.94 232.05 200.91C232.05 167.2 232.05 122.25 232.05 88.54C232.05 57.51 257.21 32.36 288.23 32.36C321.94 32.36 366.89 32.36 400.6 32.36Z" id="a4hK9ITPgf"></path><path d="M564.66 294.41C595.69 294.41 620.85 319.56 620.85 350.59C620.85 384.3 620.85 429.25 620.85 462.96C620.85 493.99 595.69 519.14 564.66 519.14C530.95 519.14 486.01 519.14 452.3 519.14C421.27 519.14 396.12 493.99 396.12 462.96C396.12 429.25 396.12 384.3 396.12 350.59C396.12 319.56 421.27 294.41 452.3 294.41C486.01 294.41 530.95 294.41 564.66 294.41Z" id="g2igbSTaDF"></path></defs><g><g><g><g><use xlink:href="#ciVkH3pjn" opacity="1" fill-opacity="0" stroke="#000000" stroke-width="26" stroke-opacity="1"></use></g></g><g><use xlink:href="#bKGQHpsKG" opacity="1" fill="#7e75f5" fill-opacity="1"></use></g><g><g><use xlink:href="#f1cKvjWBF8" opacity="1" fill-opacity="0" stroke="#000000" stroke-width="28" stroke-opacity="1"></use></g></g><g><use xlink:href="#a4hK9ITPgf" opacity="1" fill="#a4ef79" fill-opacity="1"></use></g><g><use xlink:href="#g2igbSTaDF" opacity="1" fill="#995d82" fill-opacity="1"></use></g></g></g></svg>